<?xml version="1.0" standalone="no"?>
<!DOCTYPE svg PUBLIC "-//W3C//DTD SVG 20010904//EN"
 "http://www.w3.org/TR/2001/REC-SVG-20010904/DTD/svg10.dtd">
<svg version="1.0" xmlns="http://www.w3.org/2000/svg"
 width="308.000000pt" height="311.000000pt" viewBox="0 0 308.000000 311.000000"
 preserveAspectRatio="xMidYMid meet">

<g transform="translate(0.000000,311.000000) scale(0.100000,-0.100000)"
fill="#000000" stroke="none">
<path d="M298 2977 c-171 -48 -249 -259 -150 -406 48 -72 141 -121 229 -121
43 0 122 30 165 64 117 89 126 285 17 395 -64 65 -172 92 -261 68z"/>
<path d="M2672 2864 c-18 -10 -45 -33 -60 -52 -22 -29 -27 -46 -27 -93 0 -91
54 -149 147 -157 44 -3 59 0 88 20 104 71 108 197 8 271 -36 27 -114 32 -156
11z"/>
<path d="M881 2848 c-127 -87 -71 -278 82 -278 142 0 205 160 102 260 -30 29
-43 34 -92 38 -48 3 -64 0 -92 -20z"/>
<path d="M1496 2785 c-20 -18 -26 -34 -26 -65 0 -81 85 -119 147 -66 39 34 39
98 0 132 -37 32 -86 32 -121 -1z"/>
<path d="M2111 2756 c-7 -8 -11 -30 -9 -48 3 -29 7 -33 36 -36 18 -2 40 2 48
9 17 14 18 61 2 77 -16 16 -63 15 -77 -2z"/>
<path d="M842 2364 c-57 -28 -113 -92 -133 -151 -15 -47 -7 -159 15 -206 24
-49 67 -92 120 -120 54 -28 184 -31 233 -4 95 51 143 125 151 228 11 157 -105
279 -266 279 -53 0 -79 -6 -120 -26z"/>
<path d="M315 2361 c-79 -20 -140 -76 -170 -155 -37 -97 3 -217 93 -281 37
-25 55 -30 116 -33 112 -6 188 37 232 133 54 116 7 257 -106 315 -43 22 -122
32 -165 21z"/>
<path d="M2643 2283 c-57 -36 -83 -87 -83 -157 0 -85 35 -138 112 -171 143
-59 289 71 249 222 -23 84 -91 133 -184 133 -40 0 -63 -6 -94 -27z"/>
<path d="M1482 2283 c-164 -81 -109 -327 73 -327 148 0 229 171 132 281 -54
62 -136 80 -205 46z"/>
<path d="M2083 2240 c-18 -10 -39 -30 -48 -44 -21 -32 -22 -94 -1 -134 61
-119 246 -70 246 64 0 103 -110 167 -197 114z"/>
<path d="M1454 1781 c-99 -45 -154 -124 -162 -232 -4 -56 -1 -75 20 -120 46
-102 118 -150 231 -157 87 -5 142 15 201 74 61 60 80 114 74 208 -5 78 -23
118 -75 171 -70 70 -201 96 -289 56z"/>
<path d="M307 1737 c-188 -59 -198 -325 -15 -401 101 -43 233 11 274 110 19
45 18 138 -2 177 -28 55 -75 97 -128 112 -58 17 -77 18 -129 2z"/>
<path d="M2677 1737 c-187 -60 -197 -325 -15 -401 90 -38 207 -1 259 82 24 38
29 57 29 108 0 35 -5 75 -11 91 -12 34 -64 89 -100 108 -38 20 -119 26 -162
12z"/>
<path d="M882 1689 c-112 -56 -124 -227 -21 -300 47 -33 125 -37 183 -9 127
61 125 244 -5 310 -50 26 -103 25 -157 -1z"/>
<path d="M2073 1691 c-104 -48 -131 -186 -52 -276 76 -86 232 -67 285 37 25
49 16 144 -19 190 -50 64 -136 84 -214 49z"/>
<path d="M2083 1201 c-125 -32 -214 -159 -200 -283 17 -145 124 -241 267 -242
80 0 143 27 195 86 51 55 68 101 69 178 0 104 -54 194 -145 241 -44 22 -138
32 -186 20z"/>
<path d="M2632 1154 c-152 -76 -175 -283 -42 -397 146 -125 374 -29 388 164 8
106 -41 193 -133 235 -69 33 -145 32 -213 -2z"/>
<path d="M306 1115 c-146 -52 -161 -273 -23 -339 53 -25 146 -21 188 7 101 68
115 203 30 288 -34 35 -92 59 -136 59 -11 -1 -38 -7 -59 -15z"/>
<path d="M1475 1094 c-121 -68 -122 -231 -1 -305 44 -27 120 -25 170 4 47 26
86 94 86 146 -1 51 -32 114 -71 142 -43 31 -140 37 -184 13z"/>
<path d="M887 1050 c-15 -12 -34 -35 -42 -50 -44 -86 21 -190 119 -190 117 0
177 150 91 230 -37 35 -129 40 -168 10z"/>
<path d="M2619 585 c-53 -27 -103 -80 -124 -132 -23 -54 -20 -167 6 -220 43
-89 123 -142 225 -151 55 -4 71 -1 127 26 107 50 166 152 154 266 -10 94 -69
180 -152 217 -61 28 -177 25 -236 -6z"/>
<path d="M304 491 c-61 -28 -89 -73 -89 -143 0 -63 19 -97 75 -136 103 -70
250 22 238 150 -11 113 -122 177 -224 129z"/>
<path d="M2072 480 c-52 -32 -74 -75 -70 -140 6 -93 57 -140 151 -140 45 0 61
5 87 26 114 97 56 274 -90 274 -27 0 -58 -8 -78 -20z"/>
<path d="M1508 424 c-16 -8 -30 -26 -34 -42 -3 -15 -7 -31 -9 -37 -4 -16 24
-64 44 -75 64 -34 136 9 136 82 0 71 -70 109 -137 72z"/>
<path d="M920 381 c-16 -31 -12 -59 12 -75 30 -21 44 -20 68 4 24 24 26 53 4
74 -22 23 -71 20 -84 -3z"/>
</g>
</svg>
