<svg xmlns="http://www.w3.org/2000/svg" xmlns:xlink="http://www.w3.org/1999/xlink" width="40" zoomAndPan="magnify" viewBox="0 0 30 30.000001" height="40" preserveAspectRatio="xMidYMid meet" version="1.0"><defs><clipPath id="ea5214b176"><path d="M 0.484375 0 L 29.515625 0 L 29.515625 29.03125 L 0.484375 29.03125 Z M 0.484375 0 " clip-rule="nonzero"/></clipPath></defs><g clip-path="url(#ea5214b176)"><path fill="#ffffff" d="M 0.484375 0 L 29.515625 0 L 29.515625 29.03125 L 0.484375 29.03125 Z M 0.484375 0 " fill-opacity="1" fill-rule="nonzero"/><path fill="#ffffff" d="M 0.484375 0 L 29.515625 0 L 29.515625 29.03125 L 0.484375 29.03125 Z M 0.484375 0 " fill-opacity="1" fill-rule="nonzero"/></g><path fill="#000000" d="M 5.476562 3.652344 C 4.183594 4.023438 3.597656 5.648438 4.34375 6.777344 C 4.707031 7.332031 5.40625 7.710938 6.070312 7.710938 C 6.394531 7.710938 6.988281 7.480469 7.3125 7.21875 C 8.195312 6.53125 8.265625 5.023438 7.441406 4.175781 C 6.960938 3.675781 6.144531 3.46875 5.476562 3.652344 Z M 5.476562 3.652344 " fill-opacity="1" fill-rule="nonzero"/><path fill="#000000" d="M 23.375 4.523438 C 23.238281 4.597656 23.035156 4.777344 22.921875 4.921875 C 22.757812 5.144531 22.71875 5.277344 22.71875 5.640625 C 22.71875 6.339844 23.125 6.785156 23.828125 6.847656 C 24.160156 6.871094 24.273438 6.847656 24.492188 6.695312 C 25.273438 6.148438 25.304688 5.175781 24.550781 4.605469 C 24.28125 4.398438 23.691406 4.359375 23.375 4.523438 Z M 23.375 4.523438 " fill-opacity="1" fill-rule="nonzero"/><path fill="#000000" d="M 9.871094 4.644531 C 8.914062 5.316406 9.335938 6.785156 10.488281 6.785156 C 11.558594 6.785156 12.035156 5.554688 11.257812 4.785156 C 11.03125 4.5625 10.933594 4.523438 10.5625 4.492188 C 10.203125 4.46875 10.082031 4.492188 9.871094 4.644531 Z M 9.871094 4.644531 " fill-opacity="1" fill-rule="nonzero"/><path fill="#000000" d="M 14.507812 5.132812 C 14.355469 5.269531 14.3125 5.394531 14.3125 5.632812 C 14.3125 6.253906 14.953125 6.546875 15.421875 6.140625 C 15.714844 5.878906 15.714844 5.386719 15.421875 5.125 C 15.140625 4.875 14.773438 4.875 14.507812 5.132812 Z M 14.507812 5.132812 " fill-opacity="1" fill-rule="nonzero"/><path fill="#000000" d="M 19.144531 5.355469 C 19.09375 5.414062 19.0625 5.585938 19.078125 5.722656 C 19.097656 5.945312 19.128906 5.976562 19.347656 6 C 19.484375 6.015625 19.648438 5.984375 19.710938 5.933594 C 19.839844 5.824219 19.847656 5.460938 19.726562 5.339844 C 19.605469 5.214844 19.25 5.222656 19.144531 5.355469 Z M 19.144531 5.355469 " fill-opacity="1" fill-rule="nonzero"/><path fill="#000000" d="M 9.578125 8.375 C 9.148438 8.589844 8.722656 9.082031 8.574219 9.535156 C 8.460938 9.898438 8.519531 10.761719 8.6875 11.121094 C 8.867188 11.5 9.191406 11.832031 9.589844 12.046875 C 10 12.261719 10.980469 12.285156 11.347656 12.078125 C 12.066406 11.683594 12.425781 11.113281 12.488281 10.320312 C 12.570312 9.113281 11.695312 8.171875 10.480469 8.171875 C 10.082031 8.171875 9.886719 8.21875 9.578125 8.375 Z M 9.578125 8.375 " fill-opacity="1" fill-rule="nonzero"/><path fill="#000000" d="M 5.601562 8.394531 C 5.007812 8.550781 4.546875 8.980469 4.320312 9.589844 C 4.042969 10.335938 4.34375 11.261719 5.023438 11.753906 C 5.300781 11.945312 5.4375 11.984375 5.898438 12.007812 C 6.742188 12.054688 7.3125 11.722656 7.644531 10.984375 C 8.054688 10.089844 7.699219 9.003906 6.847656 8.558594 C 6.523438 8.386719 5.925781 8.3125 5.601562 8.394531 Z M 5.601562 8.394531 " fill-opacity="1" fill-rule="nonzero"/><path fill="#000000" d="M 23.15625 8.996094 C 22.726562 9.273438 22.53125 9.667969 22.53125 10.207031 C 22.53125 10.859375 22.792969 11.269531 23.375 11.523438 C 24.453125 11.976562 25.554688 10.976562 25.253906 9.8125 C 25.078125 9.167969 24.566406 8.789062 23.863281 8.789062 C 23.5625 8.789062 23.390625 8.835938 23.15625 8.996094 Z M 23.15625 8.996094 " fill-opacity="1" fill-rule="nonzero"/><path fill="#000000" d="M 14.402344 8.996094 C 13.164062 9.621094 13.582031 11.515625 14.953125 11.515625 C 16.070312 11.515625 16.679688 10.199219 15.949219 9.351562 C 15.539062 8.875 14.921875 8.734375 14.402344 8.996094 Z M 14.402344 8.996094 " fill-opacity="1" fill-rule="nonzero"/><path fill="#000000" d="M 18.933594 9.328125 C 18.796875 9.40625 18.640625 9.558594 18.570312 9.667969 C 18.414062 9.914062 18.40625 10.390625 18.5625 10.699219 C 19.023438 11.617188 20.417969 11.238281 20.417969 10.207031 C 20.417969 9.414062 19.589844 8.921875 18.933594 9.328125 Z M 18.933594 9.328125 " fill-opacity="1" fill-rule="nonzero"/><path fill="#000000" d="M 14.191406 12.863281 C 13.445312 13.210938 13.03125 13.816406 12.96875 14.648438 C 12.9375 15.082031 12.960938 15.226562 13.121094 15.574219 C 13.46875 16.359375 14.011719 16.730469 14.863281 16.785156 C 15.519531 16.820312 15.933594 16.667969 16.378906 16.214844 C 16.835938 15.75 16.980469 15.335938 16.933594 14.613281 C 16.898438 14.011719 16.761719 13.703125 16.371094 13.292969 C 15.84375 12.753906 14.855469 12.554688 14.191406 12.863281 Z M 14.191406 12.863281 " fill-opacity="1" fill-rule="nonzero"/><path fill="#000000" d="M 5.542969 13.203125 C 4.125 13.65625 4.050781 15.703125 5.429688 16.289062 C 6.191406 16.621094 7.1875 16.207031 7.496094 15.441406 C 7.636719 15.097656 7.632812 14.378906 7.480469 14.078125 C 7.269531 13.65625 6.914062 13.332031 6.515625 13.21875 C 6.078125 13.085938 5.933594 13.078125 5.542969 13.203125 Z M 5.542969 13.203125 " fill-opacity="1" fill-rule="nonzero"/><path fill="#000000" d="M 23.414062 13.203125 C 22.003906 13.664062 21.925781 15.703125 23.300781 16.289062 C 23.976562 16.582031 24.859375 16.296875 25.253906 15.660156 C 25.433594 15.367188 25.472656 15.21875 25.472656 14.828125 C 25.472656 14.558594 25.433594 14.25 25.386719 14.125 C 25.296875 13.863281 24.90625 13.441406 24.632812 13.292969 C 24.347656 13.140625 23.738281 13.09375 23.414062 13.203125 Z M 23.414062 13.203125 " fill-opacity="1" fill-rule="nonzero"/><path fill="#000000" d="M 9.878906 13.570312 C 9.035156 14.003906 8.941406 15.320312 9.71875 15.882812 C 10.074219 16.136719 10.664062 16.167969 11.097656 15.953125 C 12.058594 15.480469 12.042969 14.074219 11.0625 13.5625 C 10.683594 13.363281 10.285156 13.371094 9.878906 13.570312 Z M 9.878906 13.570312 " fill-opacity="1" fill-rule="nonzero"/><path fill="#000000" d="M 18.859375 13.554688 C 18.074219 13.925781 17.871094 14.988281 18.464844 15.683594 C 19.039062 16.34375 20.214844 16.199219 20.613281 15.398438 C 20.804688 15.019531 20.734375 14.289062 20.472656 13.933594 C 20.09375 13.441406 19.445312 13.285156 18.859375 13.554688 Z M 18.859375 13.554688 " fill-opacity="1" fill-rule="nonzero"/><path fill="#000000" d="M 18.933594 17.328125 C 17.992188 17.578125 17.320312 18.554688 17.425781 19.507812 C 17.554688 20.625 18.359375 21.367188 19.4375 21.375 C 20.042969 21.375 20.515625 21.164062 20.910156 20.710938 C 21.292969 20.289062 21.421875 19.933594 21.429688 19.339844 C 21.429688 18.539062 21.023438 17.847656 20.335938 17.484375 C 20.003906 17.316406 19.296875 17.238281 18.933594 17.328125 Z M 18.933594 17.328125 " fill-opacity="1" fill-rule="nonzero"/><path fill="#000000" d="M 23.074219 17.691406 C 21.925781 18.277344 21.753906 19.871094 22.757812 20.75 C 23.855469 21.710938 25.578125 20.972656 25.683594 19.488281 C 25.742188 18.671875 25.371094 18 24.679688 17.675781 C 24.160156 17.421875 23.585938 17.429688 23.074219 17.691406 Z M 23.074219 17.691406 " fill-opacity="1" fill-rule="nonzero"/><path fill="#000000" d="M 5.535156 17.992188 C 4.433594 18.394531 4.320312 20.09375 5.363281 20.601562 C 5.761719 20.796875 6.460938 20.765625 6.777344 20.550781 C 7.539062 20.027344 7.644531 18.984375 7.003906 18.332031 C 6.75 18.0625 6.3125 17.875 5.980469 17.875 C 5.898438 17.882812 5.691406 17.929688 5.535156 17.992188 Z M 5.535156 17.992188 " fill-opacity="1" fill-rule="nonzero"/><path fill="#000000" d="M 14.347656 18.152344 C 13.4375 18.679688 13.429688 19.933594 14.339844 20.503906 C 14.671875 20.710938 15.246094 20.695312 15.625 20.472656 C 15.976562 20.273438 16.273438 19.75 16.273438 19.347656 C 16.265625 18.953125 16.03125 18.46875 15.738281 18.253906 C 15.414062 18.015625 14.679688 17.96875 14.347656 18.152344 Z M 14.347656 18.152344 " fill-opacity="1" fill-rule="nonzero"/><path fill="#000000" d="M 9.914062 18.492188 C 9.800781 18.585938 9.660156 18.761719 9.597656 18.878906 C 9.265625 19.539062 9.757812 20.339844 10.496094 20.339844 C 11.378906 20.339844 11.832031 19.1875 11.183594 18.570312 C 10.902344 18.300781 10.210938 18.261719 9.914062 18.492188 Z M 9.914062 18.492188 " fill-opacity="1" fill-rule="nonzero"/><path fill="#000000" d="M 22.976562 22.074219 C 22.574219 22.28125 22.199219 22.691406 22.039062 23.089844 C 21.867188 23.507812 21.890625 24.375 22.085938 24.785156 C 22.410156 25.46875 23.011719 25.878906 23.78125 25.949219 C 24.195312 25.980469 24.316406 25.957031 24.738281 25.746094 C 25.546875 25.363281 25.992188 24.578125 25.902344 23.699219 C 25.824219 22.976562 25.378906 22.3125 24.753906 22.027344 C 24.292969 21.8125 23.421875 21.835938 22.976562 22.074219 Z M 22.976562 22.074219 " fill-opacity="1" fill-rule="nonzero"/><path fill="#000000" d="M 5.519531 22.796875 C 5.058594 23.015625 4.847656 23.359375 4.847656 23.898438 C 4.847656 24.382812 4.992188 24.644531 5.414062 24.945312 C 6.191406 25.484375 7.300781 24.777344 7.207031 23.792969 C 7.125 22.921875 6.289062 22.429688 5.519531 22.796875 Z M 5.519531 22.796875 " fill-opacity="1" fill-rule="nonzero"/><path fill="#000000" d="M 18.851562 22.882812 C 18.457031 23.128906 18.292969 23.460938 18.324219 23.960938 C 18.367188 24.675781 18.753906 25.039062 19.460938 25.039062 C 19.800781 25.039062 19.921875 25 20.117188 24.839844 C 20.976562 24.09375 20.539062 22.730469 19.4375 22.730469 C 19.234375 22.730469 19 22.789062 18.851562 22.882812 Z M 18.851562 22.882812 " fill-opacity="1" fill-rule="nonzero"/><path fill="#000000" d="M 14.597656 23.3125 C 14.476562 23.375 14.371094 23.515625 14.339844 23.636719 C 14.320312 23.753906 14.289062 23.875 14.273438 23.921875 C 14.242188 24.046875 14.453125 24.414062 14.605469 24.5 C 15.089844 24.761719 15.632812 24.429688 15.632812 23.867188 C 15.632812 23.320312 15.101562 23.027344 14.597656 23.3125 Z M 14.597656 23.3125 " fill-opacity="1" fill-rule="nonzero"/><path fill="#000000" d="M 10.164062 23.644531 C 10.042969 23.882812 10.074219 24.101562 10.253906 24.222656 C 10.480469 24.382812 10.585938 24.375 10.769531 24.191406 C 10.949219 24.007812 10.964844 23.785156 10.796875 23.621094 C 10.632812 23.445312 10.261719 23.46875 10.164062 23.644531 Z M 10.164062 23.644531 " fill-opacity="1" fill-rule="nonzero"/></svg>